<?xml version="1.0" encoding="utf-8"?>
<!-- Generator: Adobe Illustrator 21.0.0, SVG Export Plug-In . SVG Version: 6.00 Build 0)  -->
<svg version="1.1" id="Layer_1" xmlns="http://www.w3.org/2000/svg" xmlns:xlink="http://www.w3.org/1999/xlink" x="0px" y="0px"
	 viewBox="0 0 185.4 233.7" style="enable-background:new 0 0 185.4 233.7;" xml:space="preserve">
<style type="text/css">
	.st0{opacity:0.4;fill:#D6D8E5;enable-background:new    ;}
	.st1{fill:#D6D8E5;}
	.st2{fill:#B1B6C4;}
	.st3{fill:#C4C7D6;}
	.st4{fill:#38226D;}
	.st5{fill:#9C73FF;}
	.st6{fill:#8C50FF;}
	.st7{fill:#FFCEA9;}
	.st8{fill:#EDEDED;}
	.st9{fill:#E5E5E5;}
	.st10{fill:#F4F4F4;}
	.st11{fill:#BFBFBF;}
	.st12{fill:#3A2C6D;}
	.st13{fill:#DCEEFF;}
	.st14{fill:#DBDBDB;}
	.st15{fill:#1E3779;}
	.st16{fill:#031F60;}
	.st17{fill:#B1B4C4;}
	.st18{fill:#9EA1AF;}
	.st19{fill:#E4E7F2;}
	.st20{fill:#201D38;}
	.st21{opacity:0.3;fill:url(#SVGID_1_);enable-background:new    ;}
	.st22{fill:#A298E2;}
	.st23{fill:#F4CE2C;}
	.st24{fill:#4D3BFF;}
	.st25{fill:#FF8657;}
	.st26{fill:#C33AFC;}
	.st27{fill:#A6CE28;}
	.st28{fill:#BCD64D;}
	.st29{fill:#28221C;}
	.st30{opacity:7.000000e-02;fill:#FFFFFF;enable-background:new    ;}
	.st31{fill:#8DA01F;}
	.st32{fill:#99B524;}
	.st33{fill:#E4E6EF;}
</style>
<title>Coding_SVG</title>
<g id="Слой_2">
	<g id="Слой_1-2">
		<polygon class="st0" points="11.6,221.3 1.8,215.7 16.4,207.3 26.2,212.9 		"/>
		<polygon class="st1" points="11.8,210 3.6,205.3 11.8,200.6 19.9,205.3 		"/>
		<polygon class="st2" points="11.8,219.4 3.6,214.7 3.6,205.3 11.8,210 		"/>
		<polygon class="st3" points="19.9,214.7 11.8,219.4 11.8,210 19.9,205.3 		"/>
		<g id="Men_5">
			<path class="st4" d="M22.7,211.8c0.7,0.2,1.5,0.1,2.1-0.3c0.5,0,3.2-1.2,3.6-0.2c0.3,0.9-0.9,1.7-1.5,1.8c-1.4,0.3-2.4,1-3,1.1
				c-0.4,0.2-0.9,0.1-1.3-0.2C22.2,213.7,22.3,212.3,22.7,211.8z"/>
			<path class="st5" d="M23.9,214c0.6-0.1,1.6-0.8,3-1.1c0.5-0.1,1.4-0.7,1.5-1.4c0.1,0.8-0.9,1.5-1.5,1.6c-1.4,0.3-2.4,1-3,1.1
				c-0.4,0.2-0.9,0.1-1.3-0.2c-0.1-0.1-0.1-0.2-0.2-0.3C22.9,214.1,23.4,214.2,23.9,214z"/>
			<path class="st4" d="M17.7,209.1c0.7,0.2,1.5,0.1,2.1-0.3c0.5,0,3.2-1.2,3.6-0.2c0.3,0.9-0.9,1.7-1.5,1.8c-1.4,0.3-2.4,1-3,1.1
				c-0.4,0.2-0.9,0.1-1.3-0.2C17.3,211.1,17.4,209.6,17.7,209.1z"/>
			<path class="st5" d="M19,211.4c0.6-0.1,1.6-0.8,3-1.1c0.5-0.1,1.4-0.7,1.5-1.4c0.1,0.8-0.9,1.5-1.5,1.6c-1.4,0.3-2.4,1-3,1.1
				c-0.4,0.2-0.9,0.1-1.3-0.2c-0.1-0.1-0.1-0.2-0.2-0.3C17.9,211.4,18.5,211.6,19,211.4z"/>
			<path class="st6" d="M10.1,205.7c2.1,0.9,4.1,1.1,5.8,0.2l1.7-1c0.1,2.2,0.2,4.3,0.2,4.3s1.3,1,2.3,0.1c0,0,0.2-3.1,0.4-6.1
				l1.8-1c0,0.2-0.1,0.3-0.1,0.5c0,0.6,0.4,9.1,0.4,9.1s1.3,0.8,2.3-0.1c0,0,0.7-9.9,0.8-11.5c0.2-1.8-1.8-2.7-3-2.2l-1.9,0.7
				l0.1-1.1c0.2-1.8-1.8-2.7-3-2.2c-1.1,0.4-8.8,3.3-8.8,3.3c0,0.7,0.1,1.5,0.3,2.2l-3-0.3C6.1,203.6,7.9,204.8,10.1,205.7z
				 M15.4,200.8l2-1.2c0,0.1-0.1,0.3-0.1,0.4L15.4,200.8z"/>
			<path class="st7" d="M4.6,192c0,0,0.2,3.8,0.7,4.3s2.2,0.9,2.2,0.9l1.3,2.1c0,0-1.2-6.7-1.4-6.9C7.1,192.4,4.6,192,4.6,192z"/>
			<path id="_Контур_" class="st8" d="M7.1,187.9c-0.6-0.3-1.4-0.1-1.8,0.5c-0.5,0.8-1,3.5-1,3.9c0.4,0.5,1,0.8,1.7,0.8
				L7.1,187.9z"/>
			<path id="_Контур_2" class="st7" d="M7.5,187.9c0.7,0,1.1,0.2,1.2,0c0.1-0.3,0.1-0.7,0.1-1c-0.1-0.2-0.1-0.4-0.1-0.4
				c-0.8-0.5-1.1-1.4-1.2-2.4c-0.2-1.8,0.8-3.3,2.5-3.5c1.7-0.2,2.9,1,3.2,2.6c0.2,0.8,0.5,2.3,0.1,3.6c-0.3,0.7-0.6,1.3-0.9,1.4
				c-0.3,0-0.7,0-1-0.1l0,0c0,0-0.1,0.5-0.1,0.8c-0.1,0.3,0,0.5,0.6,0.9c0.6,0.4-0.9,1.2-2,1.1c-1-0.1-2.2-0.7-2.5-1.4
				C7.1,188.8,7.1,187.9,7.5,187.9z"/>
			<g id="_Группа_">
				<g id="_Группа_2">
					<g id="_Группа_3">
						<path id="_Контур_3" class="st9" d="M24.1,199.5L24.1,199.5c0,0.2-0.1,0.4-0.3,0.5l-5,2.9c-0.2,0.1-0.4,0.1-0.5,0l-7-4
							c-0.2-0.1-0.3-0.3-0.3-0.5v0L24.1,199.5z"/>
						<path id="_Контур_4" class="st9" d="M23.8,199.9l-5,2.9c-0.1,0-0.2,0.1-0.3,0.1v-3.4h5.5
							C24.1,199.6,24,199.8,23.8,199.9z"/>
						<g id="_Группа_4">
							<path id="_Контур_5" class="st10" d="M18.8,202.5c-0.1,0.1-0.3,0.1-0.4,0l-7.2-4.2c-0.1-0.1-0.1-0.1,0-0.2l5.3-3.1
								l7.6,4.4L18.8,202.5z"/>
						</g>
						<g id="_Группа_5">
							<polygon id="_Контур_6" class="st11" points="14.1,199.5 14.1,199.5 16.5,200.8 17.7,200.1 17.8,200.1 15.4,198.7 
															"/>
							<polygon id="_Контур_7" class="st9" points="14.1,199.5 16.5,200.8 17.7,200.1 15.4,198.7 							"/>
						</g>
						<path class="st12" d="M22.1,199.7l0.3,0.2c0,0,0.1,0,0.1,0l0.3-0.2c0,0,0,0,0-0.1l-0.3-0.2c0,0-0.1,0-0.1,0L22.1,199.7
							C22.1,199.6,22.1,199.7,22.1,199.7z"/>
						<path class="st12" d="M21.6,199.4l0.3,0.2c0,0,0.1,0,0.1,0l0.3-0.2c0,0,0,0,0-0.1l-0.3-0.2c0,0-0.1,0-0.1,0L21.6,199.4
							C21.6,199.4,21.6,199.4,21.6,199.4z"/>
						<path class="st12" d="M21.2,199.1l0.3,0.2c0,0,0.1,0,0.1,0l0.3-0.2c0,0,0,0,0-0.1l-0.3-0.2c0,0-0.1,0-0.1,0L21.2,199.1
							C21.1,199.1,21.1,199.1,21.2,199.1z"/>
						<path class="st12" d="M20.7,198.8L21,199c0,0,0.1,0,0.1,0l0.3-0.2c0,0,0,0,0-0.1l-0.3-0.2c0,0-0.1,0-0.1,0L20.7,198.8
							C20.7,198.8,20.7,198.8,20.7,198.8z"/>
						<path class="st12" d="M20.2,198.6l0.3,0.2c0,0,0.1,0,0.1,0l0.3-0.2c0,0,0,0,0-0.1l-0.3-0.2c0,0-0.1,0-0.1,0L20.2,198.6
							C20.2,198.5,20.2,198.6,20.2,198.6z"/>
						<path class="st12" d="M19.7,198.3l0.3,0.2c0,0,0.1,0,0.1,0l0.3-0.2c0,0,0,0,0-0.1l-0.3-0.2c0,0-0.1,0-0.1,0L19.7,198.3
							C19.7,198.3,19.7,198.3,19.7,198.3z"/>
						<path class="st12" d="M19.3,198l0.3,0.2c0,0,0.1,0,0.1,0L20,198c0,0,0,0,0-0.1l-0.3-0.2c0,0-0.1,0-0.1,0L19.3,198
							C19.2,198,19.2,198,19.3,198z"/>
						<path class="st12" d="M18.8,197.8l0.3,0.2c0,0,0.1,0,0.1,0l0.3-0.2c0,0,0,0,0-0.1l-0.3-0.2c0,0-0.1,0-0.1,0L18.8,197.8
							C18.8,197.7,18.8,197.7,18.8,197.8z"/>
						<path class="st12" d="M18.3,197.5l0.3,0.2c0,0,0.1,0,0.1,0l0.3-0.2c0,0,0,0,0-0.1l-0.3-0.2c0,0-0.1,0-0.1,0L18.3,197.5
							C18.3,197.4,18.3,197.5,18.3,197.5z"/>
						<path class="st12" d="M17.8,197.2l0.3,0.2c0,0,0.1,0,0.1,0l0.3-0.2c0,0,0,0,0-0.1l-0.3-0.2c0,0-0.1,0-0.1,0L17.8,197.2
							C17.8,197.2,17.8,197.2,17.8,197.2z"/>
						<path class="st12" d="M17.4,196.9l0.3,0.2c0,0,0.1,0,0.1,0l0.3-0.2c0,0,0,0,0-0.1l-0.3-0.2c0,0-0.1,0-0.1,0L17.4,196.9
							C17.4,196.9,17.4,196.9,17.4,196.9z"/>
						<path class="st12" d="M16.9,196.7l0.3,0.2c0,0,0.1,0,0.1,0l0.3-0.2c0,0,0,0,0-0.1l-0.3-0.2c0,0-0.1,0-0.1,0L16.9,196.7
							C16.9,196.6,16.9,196.6,16.9,196.7z"/>
						<path class="st12" d="M16.4,196.4l0.3,0.2c0,0,0.1,0,0.1,0l0.3-0.2c0,0,0,0,0-0.1l-0.3-0.2c0,0-0.1,0-0.1,0L16.4,196.4
							C16.4,196.3,16.4,196.4,16.4,196.4z"/>
						<path class="st12" d="M15.7,196l0.6,0.3c0,0,0.1,0,0.1,0l0.3-0.2c0,0,0,0,0-0.1l-0.6-0.3c0,0-0.1,0-0.1,0L15.7,196
							C15.7,195.9,15.7,195.9,15.7,196C15.7,196,15.7,196,15.7,196L15.7,196z"/>
						<path class="st12" d="M20.9,199.5l0.3,0.2c0,0,0.1,0,0.1,0l0.3-0.2c0,0,0,0,0-0.1l-0.3-0.2c0,0-0.1,0-0.1,0L20.9,199.5
							C20.9,199.5,20.9,199.5,20.9,199.5z"/>
						<path class="st12" d="M20.5,199.3l0.3,0.2c0,0,0.1,0,0.1,0l0.3-0.2c0,0,0,0,0-0.1l-0.3-0.2c0,0-0.1,0-0.1,0L20.5,199.3
							C20.4,199.2,20.4,199.2,20.5,199.3z"/>
						<path class="st12" d="M20,199l0.3,0.2c0,0,0.1,0,0.1,0l0.3-0.2c0,0,0,0,0-0.1l-0.3-0.2c0,0-0.1,0-0.1,0L20,199
							C20,198.9,20,199,20,199z"/>
						<path class="st12" d="M19.5,198.7l0.3,0.2c0,0,0.1,0,0.1,0l0.3-0.2c0,0,0,0,0-0.1l-0.3-0.2c0,0-0.1,0-0.1,0L19.5,198.7
							C19.5,198.7,19.5,198.7,19.5,198.7z"/>
						<path class="st12" d="M19,198.4l0.3,0.2c0,0,0.1,0,0.1,0l0.3-0.2c0,0,0,0,0-0.1l-0.3-0.2c0,0-0.1,0-0.1,0L19,198.4
							C19,198.4,19,198.4,19,198.4z"/>
						<path class="st12" d="M18.6,198.2l0.3,0.2c0,0,0.1,0,0.1,0l0.3-0.2c0,0,0,0,0-0.1l-0.3-0.2c0,0-0.1,0-0.1,0L18.6,198.2
							C18.5,198.1,18.5,198.1,18.6,198.2z"/>
						<path class="st12" d="M18.1,197.9l0.3,0.2c0,0,0.1,0,0.1,0l0.3-0.2c0,0,0,0,0-0.1l-0.3-0.2c0,0-0.1,0-0.1,0L18.1,197.9
							C18.1,197.8,18.1,197.9,18.1,197.9z"/>
						<path class="st12" d="M17.6,197.6l0.3,0.2c0,0,0.1,0,0.1,0l0.3-0.2c0,0,0,0,0-0.1l-0.3-0.2c0,0-0.1,0-0.1,0L17.6,197.6
							C17.6,197.6,17.6,197.6,17.6,197.6z"/>
						<path class="st12" d="M17.1,197.3l0.3,0.2c0,0,0.1,0,0.1,0l0.3-0.2c0,0,0,0,0-0.1l-0.3-0.2c0,0-0.1,0-0.1,0L17.1,197.3
							C17.1,197.3,17.1,197.3,17.1,197.3z"/>
						<path class="st12" d="M16.7,197.1l0.3,0.2c0,0,0.1,0,0.1,0l0.3-0.2c0,0,0,0,0-0.1l-0.3-0.2c0,0-0.1,0-0.1,0L16.7,197.1
							C16.6,197,16.6,197,16.7,197.1z"/>
						<path class="st12" d="M16.2,196.8l0.3,0.2c0,0,0.1,0,0.1,0l0.3-0.2c0,0,0,0,0-0.1l-0.3-0.2c0,0-0.1,0-0.1,0L16.2,196.8
							C16.2,196.7,16.2,196.8,16.2,196.8z"/>
						<path class="st12" d="M15.7,196.5l0.3,0.2c0,0,0.1,0,0.1,0l0.3-0.2c0,0,0,0,0-0.1l-0.3-0.2c0,0-0.1,0-0.1,0L15.7,196.5
							C15.7,196.5,15.7,196.5,15.7,196.5z"/>
						<path class="st12" d="M21.4,199.8l0.6,0.3c0,0,0.1,0,0.1,0l0.3-0.2c0,0,0,0,0-0.1l-0.6-0.3c0,0-0.1,0-0.1,0L21.4,199.8
							C21.4,199.8,21.4,199.8,21.4,199.8z"/>
						<path class="st12" d="M15.7,196l0.3,0.2c0,0,0,0,0,0.1l-0.3,0.2c0,0-0.1,0-0.1,0h0c0,0-0.1,0-0.1,0l-0.4,0.2c0,0-0.1,0-0.1,0
							l-0.2-0.1c0,0,0,0,0-0.1l0.3-0.2l0.1,0l0.1,0l0.1,0l0.3-0.2C15.6,196,15.6,196,15.7,196z"/>
						<path class="st12" d="M20.3,200.7l0.3,0.2c0,0,0.1,0,0.1,0l0.3-0.2c0,0,0,0,0-0.1l-0.3-0.2c0,0-0.1,0-0.1,0L20.3,200.7
							C20.2,200.7,20.2,200.7,20.3,200.7z"/>
						<path class="st12" d="M19.8,200.5l0.3,0.2c0,0,0.1,0,0.1,0l0.3-0.2c0,0,0,0,0-0.1l-0.3-0.2c0,0-0.1,0-0.1,0L19.8,200.5
							C19.8,200.4,19.8,200.4,19.8,200.5z"/>
						<path class="st12" d="M19.3,200.2l0.3,0.2c0,0,0.1,0,0.1,0l0.3-0.2c0,0,0,0,0-0.1l-0.3-0.2c0,0-0.1,0-0.1,0L19.3,200.2
							C19.3,200.1,19.3,200.2,19.3,200.2z"/>
						<path class="st12" d="M15.3,197.9l0.3,0.2c0,0,0.1,0,0.1,0l0.3-0.2c0,0,0,0,0-0.1l-0.3-0.2c0,0-0.1,0-0.1,0L15.3,197.9
							C15.3,197.8,15.3,197.8,15.3,197.9z"/>
						<path class="st12" d="M14.8,197.6l0.3,0.2c0,0,0.1,0,0.1,0l0.3-0.2c0,0,0,0,0-0.1l-0.3-0.2c0,0-0.1,0-0.1,0L14.8,197.6
							C14.8,197.6,14.8,197.6,14.8,197.6z"/>
						<path class="st12" d="M14.3,197.3l0.3,0.2c0,0,0.1,0,0.1,0l0.3-0.2c0,0,0,0,0-0.1l-0.3-0.2c0,0-0.1,0-0.1,0L14.3,197.3
							C14.3,197.3,14.3,197.3,14.3,197.3z"/>
						<path class="st12" d="M13.9,197l0.3,0.2c0,0,0.1,0,0.1,0l0.3-0.2c0,0,0,0,0-0.1l-0.3-0.2c0,0-0.1,0-0.1,0L13.9,197
							C13.8,197,13.8,197,13.9,197z"/>
						<path class="st12" d="M18.7,199.8l0.5,0.3c0,0,0.1,0,0.1,0l0.3-0.2c0,0,0,0,0-0.1l-0.5-0.3c0,0-0.1,0-0.1,0L18.7,199.8
							C18.7,199.8,18.7,199.8,18.7,199.8z"/>
						<path class="st12" d="M15.8,198.1l0.5,0.3c0,0,0.1,0,0.1,0l0.3-0.2c0,0,0,0,0-0.1l-0.5-0.3c0,0-0.1,0-0.1,0L15.8,198.1
							C15.7,198.1,15.7,198.1,15.8,198.1z"/>
						<path class="st12" d="M16.4,198.5l2.2,1.3c0,0,0.1,0,0.1,0l0.3-0.2c0,0,0,0,0-0.1l-2.2-1.3c0,0-0.1,0-0.1,0L16.4,198.5
							C16.3,198.4,16.3,198.5,16.4,198.5z"/>
						<path class="st12" d="M20.3,199.7l0.3,0.2c0,0,0.1,0,0.1,0l0.3-0.2c0,0,0,0,0-0.1l-0.3-0.2c0,0-0.1,0-0.1,0L20.3,199.7
							C20.3,199.7,20.3,199.7,20.3,199.7z"/>
						<path class="st12" d="M19.9,199.4l0.3,0.2c0,0,0.1,0,0.1,0l0.3-0.2c0,0,0,0,0-0.1l-0.3-0.2c0,0-0.1,0-0.1,0L19.9,199.4
							C19.9,199.4,19.8,199.4,19.9,199.4z"/>
						<path class="st12" d="M19.4,199.2l0.3,0.2c0,0,0.1,0,0.1,0l0.3-0.2c0,0,0,0,0-0.1l-0.3-0.2c0,0-0.1,0-0.1,0L19.4,199.2
							C19.4,199.1,19.4,199.2,19.4,199.2z"/>
						<path class="st12" d="M18.9,198.9l0.3,0.2c0,0,0.1,0,0.1,0l0.3-0.2c0,0,0,0,0-0.1l-0.3-0.2c0,0-0.1,0-0.1,0L18.9,198.9
							C18.9,198.9,18.9,198.9,18.9,198.9z"/>
						<path class="st12" d="M18.5,198.6l0.3,0.2c0,0,0.1,0,0.1,0l0.3-0.2c0,0,0,0,0-0.1l-0.3-0.2c0,0-0.1,0-0.1,0L18.5,198.6
							C18.4,198.6,18.4,198.6,18.5,198.6z"/>
						<path class="st12" d="M18,198.4l0.3,0.2c0,0,0.1,0,0.1,0l0.3-0.2c0,0,0,0,0-0.1l-0.3-0.2c0,0-0.1,0-0.1,0L18,198.4
							C18,198.3,18,198.3,18,198.4z"/>
						<path class="st12" d="M17.5,198.1l0.3,0.2c0,0,0.1,0,0.1,0l0.3-0.2c0,0,0,0,0-0.1l-0.3-0.2c0,0-0.1,0-0.1,0L17.5,198.1
							C17.5,198,17.5,198.1,17.5,198.1z"/>
						<path class="st12" d="M17,197.8l0.3,0.2c0,0,0.1,0,0.1,0l0.3-0.2c0,0,0,0,0-0.1l-0.3-0.2c0,0-0.1,0-0.1,0L17,197.8
							C17,197.8,17,197.8,17,197.8z"/>
						<path class="st12" d="M16.6,197.6l0.3,0.2c0,0,0.1,0,0.1,0l0.3-0.2c0,0,0,0,0-0.1l-0.3-0.2c0,0-0.1,0-0.1,0L16.6,197.6
							C16.5,197.5,16.5,197.5,16.6,197.6z"/>
						<path class="st12" d="M16.1,197.3l0.3,0.2c0,0,0.1,0,0.1,0l0.3-0.2c0,0,0,0,0-0.1l-0.3-0.2c0,0-0.1,0-0.1,0L16.1,197.3
							C16.1,197.2,16.1,197.2,16.1,197.3z"/>
						<path class="st12" d="M15.6,197l0.3,0.2c0,0,0.1,0,0.1,0l0.3-0.2c0,0,0,0,0-0.1l-0.3-0.2c0,0-0.1,0-0.1,0L15.6,197
							C15.6,196.9,15.6,197,15.6,197z"/>
						<path class="st12" d="M15.1,196.7l0.3,0.2c0,0,0.1,0,0.1,0l0.3-0.2c0,0,0,0,0-0.1l-0.3-0.2c0,0-0.1,0-0.1,0L15.1,196.7
							C15.1,196.7,15.1,196.7,15.1,196.7z"/>
						<path class="st12" d="M20.8,200l0.7,0.4c0,0,0.1,0,0.1,0l0.3-0.2c0,0,0,0,0-0.1l-0.7-0.4c0,0-0.1,0-0.1,0L20.8,200
							C20.8,199.9,20.8,200,20.8,200z"/>
						<path class="st12" d="M20.1,200.1l0.3,0.2c0,0,0.1,0,0.1,0l0.3-0.2c0,0,0,0,0-0.1l-0.3-0.2c0,0-0.1,0-0.1,0L20.1,200.1
							C20.1,200.1,20.1,200.1,20.1,200.1z"/>
						<path class="st12" d="M19.6,199.8L20,200c0,0,0.1,0,0.1,0l0.3-0.2c0,0,0,0,0-0.1l-0.3-0.2c0,0-0.1,0-0.1,0L19.6,199.8
							C19.6,199.8,19.6,199.8,19.6,199.8z"/>
						<path class="st12" d="M19.2,199.6l0.3,0.2c0,0,0.1,0,0.1,0l0.3-0.2c0,0,0,0,0-0.1l-0.3-0.2c0,0-0.1,0-0.1,0L19.2,199.6
							C19.2,199.5,19.2,199.6,19.2,199.6z"/>
						<path class="st12" d="M18.7,199.3l0.3,0.2c0,0,0.1,0,0.1,0l0.3-0.2c0,0,0,0,0-0.1l-0.3-0.2c0,0-0.1,0-0.1,0L18.7,199.3
							C18.7,199.3,18.7,199.3,18.7,199.3z"/>
						<path class="st12" d="M18.2,199l0.3,0.2c0,0,0.1,0,0.1,0L19,199c0,0,0,0,0-0.1l-0.3-0.2c0,0-0.1,0-0.1,0L18.2,199
							C18.2,199,18.2,199,18.2,199z"/>
						<path class="st12" d="M17.8,198.8l0.3,0.2c0,0,0.1,0,0.1,0l0.3-0.2c0,0,0,0,0-0.1l-0.3-0.2c0,0-0.1,0-0.1,0L17.8,198.8
							C17.7,198.7,17.7,198.7,17.8,198.8z"/>
						<path class="st12" d="M17.3,198.5l0.3,0.2c0,0,0.1,0,0.1,0l0.3-0.2c0,0,0,0,0-0.1l-0.3-0.2c0,0-0.1,0-0.1,0L17.3,198.5
							C17.3,198.4,17.3,198.5,17.3,198.5z"/>
						<path class="st12" d="M16.8,198.2l0.3,0.2c0,0,0.1,0,0.1,0l0.3-0.2c0,0,0,0,0-0.1l-0.3-0.2c0,0-0.1,0-0.1,0L16.8,198.2
							C16.8,198.2,16.8,198.2,16.8,198.2z"/>
						<path class="st12" d="M16.3,197.9l0.3,0.2c0,0,0.1,0,0.1,0l0.3-0.2c0,0,0,0,0-0.1l-0.3-0.2c0,0-0.1,0-0.1,0L16.3,197.9
							C16.3,197.9,16.3,197.9,16.3,197.9z"/>
						<path class="st12" d="M15.9,197.7l0.3,0.2c0,0,0.1,0,0.1,0l0.3-0.2c0,0,0,0,0-0.1l-0.3-0.2c0,0-0.1,0-0.1,0L15.9,197.7
							C15.8,197.6,15.8,197.6,15.9,197.7z"/>
						<path class="st12" d="M15.4,197.4l0.3,0.2c0,0,0.1,0,0.1,0l0.3-0.2c0,0,0,0,0-0.1l-0.3-0.2c0,0-0.1,0-0.1,0L15.4,197.4
							C15.4,197.3,15.4,197.4,15.4,197.4z"/>
						<path class="st12" d="M14.3,196.8l0.9,0.5c0,0,0.1,0,0.1,0l0.3-0.2c0,0,0,0,0-0.1l-0.9-0.5c0,0-0.1,0-0.1,0L14.3,196.8
							C14.3,196.7,14.3,196.8,14.3,196.8z"/>
						<path class="st12" d="M20.6,200.4l0.5,0.3c0,0,0.1,0,0.1,0l0.3-0.2c0,0,0,0,0-0.1l-0.5-0.3c0,0-0.1,0-0.1,0L20.6,200.4
							C20.6,200.4,20.6,200.4,20.6,200.4z"/>
					</g>
					<g id="_Группа_6">
						<g id="_Группа_7">
							<g id="_Группа_8">
								<path id="_Контур_8" class="st9" d="M24.1,199.5L24.1,199.5l-7.6-4.4v-6l0.1-0.1l0.1,0l0,0c0.2-0.1,0.4-0.1,0.5,0l7,4
									c0.2,0.1,0.3,0.3,0.3,0.5v5.6C24.3,199.3,24.2,199.4,24.1,199.5z"/>
								<path id="_Контур_9" class="st9" d="M23.4,193.7l-6.9-4.4v-0.2l0.1-0.1l0.1,0c0.2-0.1,0.4-0.1,0.5,0l7,4
									c0.1,0,0.2,0.1,0.2,0.2L23.4,193.7z"/>
								<path id="_Контур_10" class="st13" d="M16.6,188.9l7.3,4.2c0.1,0,0.1,0.1,0.1,0.2v6.1l-7.6-4.4v-6
									C16.5,189,16.5,188.9,16.6,188.9C16.6,188.9,16.6,188.9,16.6,188.9z"/>
								<path id="_Контур_11" class="st10" d="M16.6,188.9l7.3,4.2c0.1,0,0.1,0.1,0.1,0.2v6.1l-7.6-4.4v-6
									C16.5,189,16.5,188.9,16.6,188.9C16.6,188.9,16.6,188.9,16.6,188.9z"/>
								<polygon id="_Контур_12" class="st14" points="24.1,199.5 24.1,199.2 16.5,194.8 16.5,195.1 								"/>
							</g>
							<polygon id="_Контур_13" class="st15" points="16.7,194.7 16.7,189.3 16.8,189.3 16.8,194.7 							"/>
							<polygon id="_Контур_14" class="st12" points="16.8,189.3 16.8,194.7 23.8,198.8 23.8,193.4 							"/>
							<polygon id="_Контур_15" class="st16" points="16.7,194.7 23.8,198.9 23.8,198.8 16.8,194.7 							"/>
						</g>
					</g>
				</g>
			</g>
			<path id="_Контур_16" class="st10" d="M8.5,188c-0.2,0.5,0.3,1,1.5,1.4s1.3-0.1,1.3-0.1c0.8,0.4,1.6,0.8,2.4,1.2
				c0.7,0.5,1.1,2,1.2,4.5c0.1,2.9,0.1,7.2,0,8c0,0-1.4,1.4-3.1,1.2c-1.8-0.2-4.7-1.7-5.4-2.9c0-2.5,0.3-3-0.1-4.4
				c-0.9-3.4-1.4-4.7-1-7c0.4-1.8,0.9-2.1,1.6-2C7.4,187.9,8,187.9,8.5,188z"/>
			<path id="_Контур_17" class="st7" d="M17.8,198.1c-1.4,0.4-1.8-0.5-2-1.3c-0.5-1.8-0.7-3.5-1.1-4.5
				c-0.4-1.2-0.8-1.4-1.4-1.7c-0.7-0.3-1.3,0.3-1.1,1.9c0.3,1.8,0.7,3.6,1.3,5.3c0.2,0.8,0.6,1.5,1.2,2.1c0.7,0.6,1.9,0.6,3.6,0.2
				c1-0.3,2-0.8,2.9-1.3c0.4-0.2,0.7-0.3,1.4-0.6c0.7-0.3,1.3-0.8,1.8-1.4c0.4-0.5,0.4-0.8,0.3-0.9c-0.1-0.1-0.3-0.1-0.5,0.1
				c-0.3,0.4-0.6,0.7-1,1c0,0,0.5-0.5,0.7-0.8c0.2-0.3,0.4-0.6,0.5-0.9c0.1-0.3-0.1-0.7-0.3-0.5c-0.2,0.2-0.3,0.5-0.7,0.9
				c-0.2,0.2-0.4,0.5-0.7,0.6c0.2-0.3,0.4-0.6,0.6-1c0.2-0.3,0.2-0.6,0.2-0.9c0-0.2-0.2-0.4-0.5,0c-0.2,0.4-0.5,0.8-0.8,1.2
				c-0.3,0.3-0.6,0.5-0.6,0.5c0-0.1,0.2-0.3,0.3-0.7c0.1-0.4,0-0.8-0.2-0.9s-0.2,0-0.4,0.3c-0.2,0.4-0.5,0.8-0.7,1.2
				c-0.1,0.4-0.3,0.7-0.6,1C19.9,197.4,19.1,197.8,17.8,198.1z"/>
			<path id="_Контур_18" class="st8" d="M12.8,190.4c1-0.1,1.6,0.3,2.1,1.8c0.4,1.5,0.7,2.7,0.7,2.7c-0.4,0.6-1,0.9-1.6,1.1
				c-1.2,0.3-1.6-0.3-1.6-0.3s-0.3-1.5-0.5-2.6C11.7,192,11.6,190.6,12.8,190.4z"/>
			<path class="st12" d="M13.3,182.9c0,0,1.5-2.3-1.8-2.8c-2.4-0.3-3.9,1.2-4.1,2.8c-0.2,1.6,0.8,3.2,1.5,3.9
				c0.7,0.2,1.4,0.1,2.1-0.2c0-0.4,0.1-0.9,0-1.3C11,185.3,9.8,182.9,13.3,182.9z"/>
		</g>
		<polygon class="st3" points="19.9,212.2 19.9,205.3 14.3,208.5 16.5,212.9 		"/>
		<polygon class="st1" points="16.2,205.7 18.4,204.5 19.9,205.3 17.7,206.6 		"/>
		<g id="monitor">
			<path class="st0" d="M103.6,174.2l-26.1-15.1c-1.9-1.1-1.6-3,0.5-4.2l16.9-9.8l32.9,19l-16.9,9.8
				C108.8,175.1,105.5,175.3,103.6,174.2z"/>
			<path class="st17" d="M105.5,173.1L79.4,158c-1.9-1.1-1.6-3,0.5-4.2l16.9-9.8l32.9,19l-16.9,9.8
				C110.7,174,107.4,174.2,105.5,173.1z"/>
			<polygon class="st17" points="129.8,163 129.8,162 128.2,162.9 			"/>
			<polygon class="st17" points="78.1,156.2 78.1,155.2 79.7,155.8 			"/>
			<path class="st1" d="M105.5,172.1L79.4,157c-1.9-1.1-1.6-3,0.5-4.2l16.9-9.8l32.9,19l-16.9,9.8
				C110.7,173,107.4,173.1,105.5,172.1z"/>
			<polygon class="st18" points="96.9,143 92.9,129.5 126.1,148.6 129.8,162 			"/>
			<path class="st18" d="M128.8,162.6l1-0.6l-1.4-1.1L128.8,162.6z"/>
			<polygon class="st17" points="95.9,143.5 91.8,130 125.1,149.1 128.8,162.6 			"/>
			<path class="st3" d="M180.4,185.3L51.5,111c-1.8-1-3.3-3.8-3.3-6.2V5.1c0-2.4,1.5-3.5,3.3-2.5L180.4,77c1.8,1,3.3,3.8,3.3,6.2
				v99.7C183.6,185.3,182.2,186.4,180.4,185.3z"/>
			<polygon class="st3" points="181,186.4 182.4,185.5 181.8,181.3 			"/>
			<path class="st17" d="M48,3.2l1.4-0.8l2,1.2c0,0-2.2,0.3-2.2,0.3C49.2,3.9,48,3.2,48,3.2z"/>
			<path class="st19" d="M179.2,186L50.4,111.7c-1.8-1-3.3-3.8-3.3-6.2V5.8c0-2.4,1.5-3.5,3.3-2.5l128.8,74.4c1.8,1,3.3,3.8,3.3,6.3
				v99.6C182.4,185.9,181,187.1,179.2,186z"/>
			<path class="st20" d="M178.9,186.1L50.1,111.8c-1.8-1-3.3-3.8-3.3-6.2V5.9c0-2.4,1.5-3.5,3.3-2.5l128.8,74.4
				c1.8,1,3.3,3.8,3.3,6.2v99.6C182.2,186.1,180.7,187.2,178.9,186.1z"/>
			
				<linearGradient id="SVGID_1_" gradientUnits="userSpaceOnUse" x1="48.5021" y1="143.0706" x2="180.5109" y2="143.0706" gradientTransform="matrix(1 0 0 -1 0 235.6998)">
				<stop  offset="0.21" style="stop-color:#FFFFFF;stop-opacity:0"/>
				<stop  offset="1" style="stop-color:#FFFFFF;stop-opacity:0.2"/>
			</linearGradient>
			<path class="st21" d="M180.4,180.1L48.5,103.9l0.1-97.6c0-1,0.7-1.4,1.6-0.9l128.8,74.4c0.9,0.6,1.5,1.6,1.6,2.7L180.4,180.1z"/>
			<polygon class="st22" points="128.6,67.4 119.9,62.3 119.9,59.2 128.6,64.2 			"/>
			<polygon class="st23" points="148.8,79 130.2,68.3 130.2,65.2 148.8,75.9 			"/>
			<polygon class="st22" points="128.6,77.5 119.9,72.4 119.9,69.3 128.6,74.3 			"/>
			<polygon class="st24" points="136.4,82 130.2,78.4 130.2,75.3 136.4,78.9 			"/>
			<polygon class="st22" points="128.6,82.5 119.9,77.5 119.9,74.3 128.6,79.4 			"/>
			<polygon class="st24" points="140.6,89.4 130.2,83.5 130.2,80.3 140.6,86.3 			"/>
			<polygon class="st22" points="128.6,87.6 119.9,82.5 119.9,79.4 128.6,84.4 			"/>
			<polygon class="st25" points="157.6,104.3 130.2,88.5 130.2,85.3 157.6,101.1 			"/>
			<polygon class="st22" points="128.6,72.4 119.9,67.4 119.9,64.2 128.6,69.3 			"/>
			<polygon class="st22" points="164.3,93.1 130.2,73.4 130.2,70.2 164.3,89.9 			"/>
			<polygon class="st22" points="128.6,92.6 119.9,87.6 119.9,84.4 128.6,89.4 			"/>
			<polygon class="st26" points="159.7,110.9 130.2,93.5 130.2,90.4 159.7,107.7 			"/>
			<polygon class="st22" points="128.6,102.7 119.9,97.6 119.9,94.5 128.6,99.5 			"/>
			<polygon class="st22" points="164.7,123.5 130.2,103.6 130.2,100.5 164.7,120.4 			"/>
			<polygon class="st22" points="128.6,107.7 119.9,102.7 119.9,99.5 128.6,104.6 			"/>
			<polygon class="st26" points="140.6,114.7 130.2,108.7 130.2,105.5 140.6,111.5 			"/>
			<polygon class="st22" points="128.6,112.8 119.9,107.7 119.9,104.6 128.6,109.6 			"/>
			<polygon class="st24" points="151.4,126 130.2,113.7 130.2,110.6 151.4,122.9 			"/>
			<polygon class="st22" points="128.6,97.6 119.9,92.6 119.9,89.4 128.6,94.5 			"/>
			<polygon class="st24" points="134.1,100.8 130.2,98.6 130.2,95.4 134.1,97.6 			"/>
			<polygon class="st22" points="128.6,117.8 119.9,112.8 119.9,109.6 128.6,114.7 			"/>
			<polygon class="st26" points="143.9,126.7 130.2,118.8 130.2,115.6 143.9,123.5 			"/>
			<polygon class="st22" points="128.6,127.9 119.9,122.9 119.9,119.7 128.6,124.8 			"/>
			<polygon class="st25" points="150.2,140.3 130.2,128.9 130.2,125.7 150.2,137.1 			"/>
			<polygon class="st22" points="128.6,133 119.9,127.9 119.9,124.8 128.6,129.8 			"/>
			<polygon class="st22" points="132.7,135.5 130.2,133.9 130.2,130.8 132.7,132.3 			"/>
			<polygon class="st22" points="128.6,138 119.9,133 119.9,129.8 128.6,134.9 			"/>
			<polygon class="st23" points="141.7,145.6 130.2,139 130.2,135.8 141.7,142.4 			"/>
			<polygon class="st22" points="128.6,122.9 119.9,117.8 119.9,114.7 128.6,119.7 			"/>
			<polygon class="st24" points="146.2,133 130.2,123.8 130.2,120.7 146.2,129.8 			"/>
			<polygon class="st22" points="72,35.8 63.3,30.8 63.3,27.6 72,32.7 			"/>
			<polygon class="st26" points="110.8,58.2 73.7,36.8 73.7,33.6 110.8,55.1 			"/>
			<polygon class="st22" points="72,45.9 63.3,40.9 63.3,37.7 72,42.8 			"/>
			<polygon class="st23" points="98.3,61.1 73.7,46.9 73.7,43.7 98.3,57.9 			"/>
			<polygon class="st22" points="72,51 63.3,45.9 63.3,42.8 72,47.8 			"/>
			<polygon class="st25" points="104.3,69.6 73.7,51.9 73.7,48.8 104.3,66.4 			"/>
			<polygon class="st22" points="72,56 63.3,51 63.3,47.8 72,52.9 			"/>
			<polygon class="st22" points="95,69.3 73.7,57 73.7,53.8 95,66.1 			"/>
			<polygon class="st22" points="72,40.9 63.3,35.8 63.3,32.7 72,37.7 			"/>
			<polygon class="st24" points="92.3,52.5 73.7,41.8 73.7,38.7 92.3,49.4 			"/>
			<polygon class="st22" points="72,61.1 63.3,56 63.3,52.9 72,57.9 			"/>
			<polygon class="st26" points="84.6,68.3 73.7,62 73.7,58.8 84.6,65.2 			"/>
			<polygon class="st22" points="72,71.1 63.3,66.1 63.3,63 72,68 			"/>
			<polygon class="st23" points="108.1,92 73.7,72.1 73.7,68.9 108.1,88.8 			"/>
			<polygon class="st22" points="72,76.2 63.3,71.1 63.3,68 72,73 			"/>
			<polygon class="st25" points="84.1,83.1 73.7,77.1 73.7,74 84.1,80 			"/>
			<polygon class="st22" points="72,81.2 63.3,76.2 63.3,73 72,78.1 			"/>
			<polygon class="st22" points="104.3,99.9 73.7,82.2 73.7,79 104.3,96.7 			"/>
			<polygon class="st22" points="72,66.1 63.3,61.1 63.3,57.9 72,63 			"/>
			<polygon class="st24" points="102.6,83.8 73.7,67.1 73.7,63.9 102.6,80.6 			"/>
			<polygon class="st22" points="72,86.3 63.3,81.2 63.3,78.1 72,83.1 			"/>
			<polygon class="st26" points="77.5,89.4 73.7,87.2 73.7,84.1 77.5,86.3 			"/>
			<polygon class="st22" points="72,96.4 63.3,91.3 63.3,88.2 72,93.2 			"/>
			<polygon class="st23" points="80.8,101.4 73.7,97.3 73.7,94.2 80.8,98.3 			"/>
			<polygon class="st22" points="72,101.4 63.3,96.4 63.3,93.2 72,98.3 			"/>
			<polygon class="st25" points="92.3,113.1 73.7,102.4 73.7,99.2 92.3,109.9 			"/>
			<polygon class="st22" points="72,106.5 63.3,101.4 63.3,98.3 72,103.3 			"/>
			<polygon class="st22" points="103.2,124.5 73.7,107.4 73.7,104.3 103.2,121.3 			"/>
			<polygon class="st22" points="72,91.3 63.3,86.3 63.3,83.1 72,88.2 			"/>
			<polygon class="st24" points="110.8,113.7 73.7,92.3 73.7,89.1 110.8,110.6 			"/>
		</g>
		<ellipse class="st0" cx="139.2" cy="220.4" rx="19.2" ry="11.1"/>
		<path class="st27" d="M160.3,218.8v-29.5l-38.3,1l0.1,27.2c-0.7,3.3,1.1,6.7,5.5,9.2c7.5,4.3,19.6,4.3,27.1,0
			C158.4,224.5,160.3,221.7,160.3,218.8z"/>
		<ellipse class="st28" cx="141.1" cy="189.3" rx="19.2" ry="11.1"/>
		<path class="st29" d="M157.2,189.3c0,1.8-1.5,3.7-4.1,5.2c-2.8,1.6-6.7,2.6-10.8,2.8c-0.4,0-0.8,0-1.2,0c-4.5,0-8.9-1-12-2.8
			c-2.6-1.5-4.1-3.4-4.1-5.2c0-1.8,1.5-3.7,4.1-5.2c3.1-1.8,7.5-2.8,12-2.8c0.4,0,0.8,0,1.2,0c4.1,0.2,8,1.2,10.8,2.8
			C155.7,185.6,157.2,187.5,157.2,189.3z"/>
		<path class="st30" d="M157.2,189.3c0,1.8-1.5,3.7-4.1,5.2c-2.8,1.6-6.7,2.6-10.8,2.8c-4.1-0.2-8-1.2-10.8-2.8
			c-2.6-1.5-4.1-3.4-4.1-5.2s1.5-3.7,4.1-5.2c2.8-1.6,6.7-2.6,10.8-2.8c4.1,0.2,8,1.2,10.8,2.8C155.7,185.6,157.2,187.5,157.2,189.3
			z"/>
		<path class="st31" d="M157.5,203l-4.1-2.4l-2,1.1l2,1.1v0.8l3.8,2.2l-0.1,0.7c0.6,0.5,2.5,4.1,2.5,4.1l0.1-0.1v9.5
			c0,2.5-1.5,1.7-2.1,1.3l-4.3-2.5l-2,1.1l2,1.1v0.8l4.3,2.5c0.4,0.3,0.9,0.5,1.4,0.6l-0.3,1.2l2.2-1.3h0h0l0,0
			c0.9-0.5,1.3-1.9,1.3-3.3v-10C162.4,207.4,159.2,204.1,157.5,203z"/>
		<path class="st32" d="M155.7,225.5l-4.3-2.5V220l4.3,2.5c0.6,0.4,2.1,1.2,2.1-1.3v-9.9c0-2.3-2.1-4-2.5-4.2l-3.9-2.2v-3l4.1,2.4
			c1.7,1.2,4.9,4.5,4.9,8.7v9.9C160.4,225.4,159.2,227.6,155.7,225.5z"/>
		<ellipse class="st0" cx="20.7" cy="165.2" rx="13.2" ry="7.6"/>
		<ellipse class="st1" cx="22.6" cy="163.8" rx="13.2" ry="7.6"/>
		<polygon class="st1" points="4.9,137.7 9.6,164.3 35.8,164.3 40.3,137.9 		"/>
		<ellipse class="st33" cx="22.6" cy="137.3" rx="17.7" ry="10.2"/>
		<path class="st29" d="M22.6,145.3c-4.3,0-8.4-1-11.4-2.7c-2.6-1.5-4.1-3.4-4.1-5.3s1.5-3.8,4.1-5.3c3-1.7,7.1-2.7,11.4-2.7
			s8.4,1,11.4,2.7c2.6,1.5,4.1,3.4,4.1,5.3s-1.5,3.8-4.1,5.3C31,144.4,27,145.3,22.6,145.3z"/>
		<path class="st32" d="M30.2,129.3c0.5-7-2.3-13.8-7.5-18.4l0,0l0,0l-0.1-0.1v0.1c-5.2,4.6-8,11.4-7.5,18.4l-10.1-1
			c4.3,16.1,17.7,14.7,17.7,14.7v0c1,0.1,13.5,0.7,17.6-14.7L30.2,129.3z"/>
		<path class="st27" d="M22.7,143.1c0,0-0.9-12.5-17.7-21C5,122.1,1,142.9,22.7,143.1z"/>
		<path class="st27" d="M22.6,143.1c0,0,0.9-12.5,17.7-21C40.3,122.1,44.3,142.9,22.6,143.1z"/>
	</g>
</g>
</svg>
